# AST/ASF file generated using VICON BodyLanguage
# -----------------------------------------------
:version 1.10
:name VICON
:units
  mass 1.0
  length 0.45
  angle deg
:documentation
   .ast/.asf automatically generated from VICON data using
   VICON BodyBuilder and BodyLanguage model FoxedUp or BRILLIANT.MOD
:root
   order TX TY TZ RX RY RZ
   axis XYZ
   position 0 0 0  
   orientation 0 0 0 
:bonedata
  begin
     id 1 
     name lhipjoint
     direction 0.561001 -0.76473 0.316963 
     length 2.4722 
     axis 0 0 0  XYZ
  end
  begin
     id 2 
     name lfemur
     direction 0.34202 -0.939693 0  
     length 7.59403  
     axis 0 0 20  XYZ
    dof rx ry rz
    limits (-160.0 20.0)
           (-70.0 70.0)
           (-60.0 70.0)
  end
  begin
     id 3 
     name ltibia
     direction 0.34202 -0.939693 0   
     length 7.89655   
     axis 0 0 20   XYZ
    dof rx
    limits (-10.0 170.0)
  end
  begin
     id 4 
     name lfoot
     direction 0.061296 -0.168409 0.98381   
     length 2.73287   
     axis -90 7.62852e-016 20   XYZ
    dof rx rz
    limits (-45.0 90.0)
           (-70.0 20.0)
  end
  begin
     id 5 
     name ltoes
     direction 1.53547e-011 -4.21984e-011 1   
     length 1.37057   
     axis -90 7.62852e-016 20   XYZ
    dof rx
    limits (-90.0 20.0)
  end
  begin
     id 6 
     name rhipjoint
     direction -0.559611 -0.765599 0.317323   
     length 2.46939  
     axis 0 0 0  XYZ 
  end
  begin
     id 7 
     name rfemur
     direction -0.34202 -0.939693 0   
     length 7.53712   
     axis 0 0 -20   XYZ
    dof rx ry rz
    limits (-160.0 20.0)
           (-70.0 70.0)
           (-70.0 60.0)
  end
  begin
     id 8 
     name rtibia
     direction -0.34202 -0.939693 0   
     length 8.12549   
     axis 0 0 -20   XYZ
    dof rx
    limits (-10.0 170.0)
 end
 begin
     id 9 
     name rfoot
     direction -0.066984 -0.184037 0.980634   
     length 2.67541  
     axis -90 -7.62852e-016 -20   XYZ
    dof rx rz
    limits (-45.0 90.0)
           (-20.0 70.0)
  end
  begin
     id 10 
     name rtoes
     direction -1.53549e-011 -4.21786e-011 1   
     length 1.34085   
     axis -90 -7.62852e-016 -20   XYZ
    dof rx
    limits (-90.0 20.0)
  end
  begin
     id 11 
     name lowerback
     direction -0.0522728 0.992594 -0.109658   
     length 2.05633   
     axis 0 0 0   XYZ
    dof rx ry rz
    limits (-20.0 45.0)
           (-30.0 30.0)
           (-30.0 30.0)
  end
  begin
     id 12 
     name upperback
     direction 0.00589338 0.999977 0.00335704   
     length 2.05845   
     axis 0 0 0   XYZ
    dof rx ry rz
    limits (-20.0 45.0)
           (-30.0 30.0)
           (-30.0 30.0)
  end
  begin
     id 13 
     name thorax
     direction 0.0292928 0.998059 0.0549487   
     length 2.09281   
     axis 0 0 0   XYZ
    dof rx ry rz
    limits (-20.0 45.0)
           (-30.0 30.0)
           (-30.0 30.0)
  end
  begin
     id 14 
     name lowerneck
     direction 0.0356368 0.980775 0.191858   
     length 1.84767   
     axis 0 0 0   XYZ
    dof rx ry rz
    limits (-20.0 45.0)
           (-30.0 30.0)
           (-30.0 30.0)
  end
  begin
     id 15 
     name upperneck
     direction -0.0227605 0.98931 -0.14404   
     length 1.89582   
     axis 0 0 0   XYZ
    dof rx ry rz
    limits (-20.0 45.0)
           (-30.0 30.0)
           (-30.0 30.0)
  end
  begin
     id 16
     name head
     direction -0.00932985 0.997511 -0.0698904  
     length 1.90213  
     axis 0 0 0   XYZ
    dof rx ry rz
    limits (-20.0 45.0)
           (-30.0 30.0)
           (-30.0 30.0)
  end
  begin
     id 17 
     name lclavicle
     direction 0.873442 0.479511 0.0846686  
     length 3.41193  
     axis 0 0 0   XYZ
    dof ry rz
    limits (-20.0 10.0)
           (0.0 20.0)
  end
  begin
     id 18 
     name lhumerus
     direction 1 -4.4897e-011 -5.62117e-018   
     length 5.59864   
     axis 180 -30 -90   XYZ
    dof rx ry rz
    limits (-60.0 90.0)
           (-90.0 90.0)
           (-90.0 90.0)
  end
  begin
     id 19
     name lradius
     direction 1 -4.48966e-011 -6.26295e-027   
     length 3.59542   
     axis 180 -30 -90   XYZ
    dof rx
    limits (-10.0 170.0)
  end
  begin
     id 20
     name lwrist
     direction 1 -4.48947e-011 -1.74096e-026   
     length 1.79771   
     axis 1.04567e-014 90 90   XYZ
    dof ry
    limits (-180.0 0.0)
 end
  begin
     id 21 
     name lhand
     direction 1 -4.49085e-011 -3.48469e-026   
     length 0.572014   
     axis 2.22196e-014 90 90   XYZ
    dof rx rz
    limits (-90.0 90.0)
           (-45.0 45.0)
  end
  begin
     id 22 
     name lfingers
     direction 1 -4.48884e-011 -6.96135e-026   
     length 0.461173   
     axis 4.44383e-014 90 90   XYZ
    dof rx
    limits (0.0 90.0)
  end
  begin
     id 23
     name lthumb
     direction 0.707107 -6.34976e-011 0.707107   
     length 0.662154   
     axis -90 45 -5.4397e-014   XYZ
    dof rx rz
    limits (-45.0 45.0)
           (-45.0 45.0)
  end
  begin
     id 24 
     name rclavicle
     direction -0.890242 0.443271 0.104786   
     length 3.46753  
     axis 0 0 0   XYZ 
    dof ry rz
    limits (-10.0 20.0)
           (-20.0 0.0)
  end
  begin
     id 25 
     name rhumerus
     direction -1 -4.48963e-011 -5.41723e-018  
     length 5.8094   
     axis 180 30 90   XYZ
    dof rx ry rz
    limits (-90.0 60.0)
           (-90.0 90.0)
           (-90.0 90.0)
  end
  begin
     id 26 
     name rradius
     direction -1 -4.48958e-011 -6.51059e-027   
     length 3.66953   
     axis 180 30 90   XYZ
    dof rx
    limits (-10.0 170.0)
  end
  begin
     id 27 
     name rwrist
     direction -1 -4.48975e-011 -1.74124e-026   
     length 1.83476   
     axis 1.04567e-014 -90 -90   XYZ
    dof ry
    limits (-180.0 0.0)
  end
  begin
     id 28
     name rhand
     direction -1 -4.49013e-011 -3.48326e-026   
     length 0.57843   
     axis 2.22196e-014 -90 -90   XYZ
    dof rx rz
    limits (-90.0 90.0)
           (-45.0 45.0)
  end
  begin
     id 29
     name rfingers
     direction -1 -4.49023e-011 -6.9669e-026   
     length 0.466345   
     axis 4.44383e-014 -90 -90   XYZ
    dof rx
    limits (0.0 90.0)
  end
  begin
     id 30
     name rthumb
     direction -0.707107 -6.34926e-011 0.707107   
     length 0.669581   
     axis -90 -45 5.4397e-014   XYZ
    dof rx rz
    limits (-45.0 45.0)
           (-45.0 45.0)
  end
:hierarchy
  begin
    root lhipjoint rhipjoint lowerback
    lhipjoint lfemur
    lfemur ltibia
    ltibia lfoot
    lfoot ltoes
    rhipjoint rfemur
    rfemur rtibia
    rtibia rfoot
    rfoot rtoes
    lowerback upperback
    upperback thorax
    thorax lowerneck lclavicle rclavicle
    lowerneck upperneck
    upperneck head
    lclavicle lhumerus
    lhumerus lradius
    lradius lwrist
    lwrist lhand lthumb
    lhand lfingers
    rclavicle rhumerus
    rhumerus rradius
    rradius rwrist
    rwrist rhand rthumb
    rhand rfingers
  end

#!OML:ASF H:\SkateBoarding\Project 1\Capture day 1\Session 1\Skater.ASF
:FULLY-SPECIFIED
:DEGREES
126
root -13.2108 18.7005 11.8802 0.821999 80.6104 -1.74859
lowerback 10.249 -3.74697 -5.25882
upperback -1.12908 -5.71466 -1.20473
thorax -6.54717 -2.62066 2.55353
lowerneck -17.6064 -5.79689 -2.30574
upperneck 40.3119 -7.55504 1.20759
head 18.1828 -2.85443 -0.439847
rclavicle 6.11263e-015 6.36111e-015
rhumerus -44.5021 5.99694 -88.2973
rradius 50.7789
rwrist -15.3455
rhand -40.1651 2.29083
rfingers 7.12502
rthumb -13.127 -27.276
lclavicle 6.11263e-015 6.36111e-015
lhumerus -31.457 -30.3284 106.335
lradius 59.9854
lwrist 28.9344
lhand -28.5604 9.98839
lfingers 7.12502
lthumb -1.92715 39.9594
rfemur -21.8309 -3.62692 16.221
rtibia 57.5107
rfoot -39.6178 14.2499
rtoes -5.28112
lfemur -14.9994 -2.19697 -13.6532
ltibia 54.9976
lfoot -47.9523 -0.658274
ltoes -16.952
127
root -13.1935 18.6983 12.2722 -1.78231 80.9733 -4.42071
lowerback 10.2151 -3.67645 -5.01574
upperback -1.14603 -5.59076 -1.21823
thorax -6.57908 -2.56825 2.38645
lowerneck -17.4983 -5.85705 -2.16856
upperneck 40.2761 -7.68366 1.19073
head 18.1261 -2.88707 -0.492438
rclavicle -5.96354e-016 -1.35174e-014
rhumerus -44.4008 5.72333 -88.7241
rradius 50.1138
rwrist -15.0194
rhand -39.7681 2.59771
rfingers 7.12502
rthumb -12.7443 -26.9934
lclavicle -5.96354e-016 -1.35174e-014
lhumerus -32.2602 -30.358 105.93
lradius 59.8686
lwrist 28.8748
lhand -28.5721 10.187
lfingers 7.12502
lthumb -1.93846 40.158
rfemur -21.3093 -3.10255 16.385
rtibia 56.8029
rfoot -38.3491 15.9627
rtoes -4.0084
lfemur -15.3964 -2.11879 -13.1179
ltibia 55.4034
lfoot -47.6051 -0.827694
ltoes -16.9422
128
root -13.1761 18.6869 12.6614 -4.14427 81.2366 -6.90871
lowerback 10.0702 -3.62701 -4.85071
upperback -1.14445 -5.49629 -1.2267
thorax -6.51759 -2.5309 2.26207
lowerneck -17.4692 -5.83479 -1.99731
upperneck 40.2197 -7.69251 1.15879
head 18.0721 -2.86969 -0.53609
rclavicle -3.15074e-014 -1.59028e-015
rhumerus -44.0288 5.36288 -89.0332
rradius 49.1756
rwrist -14.1743
rhand -39.226 2.72337
rfingers 7.12502
rthumb -12.2216 -26.8996
lclavicle -3.15074e-014 -1.59028e-015
lhumerus -32.8276 -30.1542 105.347
lradius 59.6524
lwrist 28.5516
lhand -28.4994 10.4231
lfingers 7.12502
lthumb -1.86821 40.3947
rfemur -20.8904 -2.90745 16.606
rtibia 56.1394
rfoot -37.8187 17.9966
rtoes -2.19637
lfemur -15.8427 -1.70009 -12.649
ltibia 55.7982
lfoot -47.3404 -0.873586
ltoes -17.6699
129
root -13.1552 18.6825 13.0469 -6.62986 81.3304 -9.45903
lowerback 10.0563 -3.53467 -4.61651
upperback -1.17924 -5.34683 -1.23488
thorax -6.57832 -2.46449 2.10395
lowerneck -17.396 -5.83848 -1.8234
upperneck 40.1716 -7.70468 1.03872
head 18.0046 -2.86675 -0.619936
rclavicle 1.83876e-015 -4.77083e-015
rhumerus -43.7436 5.28048 -89.4107
rradius 48.2801
rwrist -13.858
rhand -38.369 3.05806
rfingers 7.12502
rthumb -11.3951 -26.6123
lclavicle 1.83876e-015 -4.77083e-015
lhumerus -33.565 -29.9372 104.807
lradius 59.5467
lwrist 28.202
lhand -28.4281 10.4079
lfingers 7.12502
lthumb -1.79939 40.3801
rfemur -20.5998 -2.89778 16.9343
rtibia 55.6056
rfoot -38.2419 17.9343
rtoes -2.32683
lfemur -16.0987 -1.0487 -12.2143
ltibia 56.0715
lfoot -47.1107 -1.13806
ltoes -18.1798
130
root -13.1305 18.6891 13.4317 -8.87379 81.2502 -11.7501
lowerback 10.0127 -3.39588 -4.45641
upperback -1.17516 -5.13748 -1.18565
thorax -6.57135 -2.3679 2.03393
lowerneck -17.3606 -5.83318 -1.88591
upperneck 40.0996 -7.67811 1.06937
head 17.9591 -2.86323 -0.587165
rclavicle 5.81445e-014 6.36111e-015
rhumerus -43.3261 5.36927 -89.708
rradius 47.3274
rwrist -13.4064
rhand -37.6348 3.07308
rfingers 7.12502
rthumb -10.687 -26.6351
lclavicle 5.81445e-014 6.36111e-015
lhumerus -34.3016 -29.7151 104.271
lradius 59.5726
lwrist 27.963
lhand -28.314 10.4592
lfingers 7.12502
lthumb -1.68914 40.4323
rfemur -20.4649 -3.03254 17.2965
rtibia 55.1935
rfoot -38.8266 16.9238
rtoes -3.31487
lfemur -16.2289 -0.21352 -11.8054
ltibia 56.2217
lfoot -46.8425 -1.22786
ltoes -18.6694
